<?xml version="1.0" encoding="UTF-8"?>
<svg width="512" height="512" viewBox="0 0 512 512" fill="none" xmlns="http://www.w3.org/2000/svg">
  <rect width="512" height="512" rx="128" fill="#222222"/>
  <path d="M256 128C187.307 128 128 187.307 128 256C128 324.693 187.307 384 256 384C324.693 384 384 324.693 384 256C384 187.307 324.693 128 256 128ZM256 336C230.64 336.014 206.175 325.648 188.8 308C180.267 299.467 173.333 289.333 168.267 278.667C173.333 267.973 180.267 257.867 188.8 249.333C206.175 231.685 230.64 221.319 256 221.333C265.12 221.326 274.182 222.734 282.88 225.515C291.578 228.296 299.789 232.417 307.2 237.697C314.611 242.977 321.118 249.342 326.435 256.538C331.752 263.734 335.806 271.666 338.4 280.107C335.814 288.553 331.77 296.493 326.463 303.698C321.155 310.904 314.659 317.281 307.258 322.576C299.858 327.87 291.656 332.006 282.966 334.806C274.277 337.606 265.22 339.035 256.107 339.051L256 336ZM256 176C278.037 176 299.531 183.694 317.068 198.021C334.605 212.347 347.196 232.408 352.427 254.987C357.658 277.566 355.24 301.31 345.576 322.23C335.913 343.149 319.589 360.231 299.2 370.667C278.778 381.1 255.25 384.259 232.615 379.673C209.98 375.087 189.672 362.978 175.14 345.55C160.609 328.122 152.729 306.44 152.735 284C152.741 261.56 160.631 239.883 175.173 222.467L163.2 213.333L128 213.333L128 149.333L192 149.333L192 184.533L200.267 192C219.178 177.977 241.941 170.645 265.481 171.233C289.02 171.821 311.339 180.302 329.333 195.467L305.067 224C292.107 216.172 276.889 212.26 261.401 212.84C245.913 213.42 230.991 218.466 218.571 227.284C206.151 236.103 196.841 248.299 191.755 262.355C186.669 276.41 186.049 291.654 190.001 305.999C193.954 320.344 202.286 333.152 214.039 342.75C225.792 352.348 240.401 358.321 255.858 359.874C271.316 361.427 286.878 358.493 300.575 351.417C314.273 344.341 325.432 333.441 332.8 320C339.833 306.988 342.808 292.141 341.387 277.442C339.967 262.743 334.209 248.826 324.8 237.333L347.733 208C361.94 224.772 371.217 245.04 374.433 266.582C377.65 288.124 374.702 310.147 365.943 330.032C357.185 349.918 342.989 366.961 324.925 379.064C306.861 391.167 285.691 397.877 263.964 398.446C242.237 399.015 220.716 393.424 202.045 382.239C183.374 371.054 168.327 354.729 158.534 335.303C148.741 315.877 144.616 294.023 146.652 272.327C148.688 250.63 156.82 229.945 170.133 213.333L163.2 206.4L163.2 170.667L192 170.667L192 194.133L207.467 205.867C221.779 191.756 239.52 181.67 258.89 176.646C278.26 171.623 298.652 171.825 317.92 177.232L299.2 202.667C287.033 198.698 274.097 197.446 261.361 199.023C248.625 200.599 236.424 204.96 225.6 211.733L236.8 221.333L238.4 222.933C246.4 219.867 254.4 218.667 262.4 218.667C289.867 218.667 312 240.8 312 268.267C312 295.733 289.867 317.867 262.4 317.867C234.933 317.867 212.8 295.733 212.8 268.267C212.8 261.654 214.183 255.136 216.866 249.14C219.548 243.145 223.476 237.8 228.4 233.467L214.933 221.333L214.933 221.333C207.467 229.067 201.387 238.489 197.145 248.94C192.904 259.39 190.57 270.631 190.24 282.018C189.911 293.405 191.593 304.74 195.202 315.433C198.812 326.127 204.28 335.934 211.322 344.155C218.363 352.376 226.862 358.856 236.342 363.213C245.822 367.57 256.066 369.725 266.448 369.551C276.829 369.377 287.006 366.878 296.349 362.211C305.692 357.544 313.995 350.791 320.794 342.338C327.593 333.886 332.776 323.89 336.066 313.063C339.356 302.235 340.692 290.824 340.001 279.461C339.309 268.098 336.605 257.006 332.053 246.774C327.502 236.541 321.194 227.362 313.5 219.778C305.806 212.194 296.881 206.363 287.2 202.667L307.2 175.467C312.267 177.867 317.333 180.8 322.133 184C339.733 197.067 352.265 216.176 357.493 237.866C362.72 259.557 360.366 282.253 350.933 302.133C341.499 322.014 325.643 338.187 305.801 347.883C285.959 357.579 263.193 360.184 241.335 355.236C219.478 350.288 199.838 338.112 185.649 320.953C171.459 303.793 163.576 282.668 163.178 260.714C162.78 238.76 169.888 217.333 183.467 199.733L175.2 192L175.2 165.867L156.267 165.867L156.267 196.8L171.733 209.6C157.333 226.667 149.333 248 149.333 270.933C149.333 275.093 149.6 279.227 150.133 283.333C152.249 300.72 158.842 317.246 169.281 331.222C179.72 345.198 193.68 356.124 209.881 363.038C226.082 369.952 243.89 372.634 261.552 370.809C279.214 368.983 296.151 362.704 310.667 352.533C313.067 350.933 315.333 349.067 317.6 347.2C320.704 344.747 323.578 342.04 326.187 339.107C334.939 330.012 341.614 319.221 345.76 307.451C349.907 295.681 351.431 283.189 350.22 270.831C349.01 258.473 345.09 246.531 338.714 235.923C332.338 225.315 323.674 216.308 313.333 209.6L334.933 181.333C347.077 189.659 357.437 200.213 365.436 212.452C373.436 224.691 378.918 238.369 381.6 252.8C389.333 299.2 367.467 344.8 329.333 368.533C312.533 378.667 293.333 384 273.6 384C270.4 384 267.2 384 264 384L262.4 384C258.133 384 253.867 383.733 249.6 383.2C195.833 378.133 153.6 333.6 149.333 279.733C149.333 278.4 149.333 277.067 149.333 275.733C149.333 255.467 154.667 236.267 164.8 219.467C166.505 216.32 168.404 213.275 170.486 210.347C170.613 210.16 170.747 209.973 170.88 209.787L156.267 196.8L156.267 156.267L184.533 156.267L184.533 165.867L192 165.867L192 156.267L192 149.333L222.933 149.333L222.933 176.533C232.533 173.211 242.521 171.015 252.698 169.996C262.874 168.976 273.15 169.143 283.273 170.493L268.8 188.533C261.067 187.467 253.333 187.467 245.6 188.267C237.867 189.067 230.4 190.933 223.2 193.6L222.933 193.6L222.933 176.533L135.467 176.533L135.467 184L135.467 205.867L135.467 213.333L163.733 213.333L164.267 213.333L185.067 230.933C184.346 232.351 183.662 233.789 183.013 235.246C178.039 247.197 175.475 260.066 175.467 273.067C175.467 274.4 175.467 276 175.467 277.333C178.133 313.6 206.4 343.467 242.933 346.667C256.267 347.733 269.867 345.333 281.6 339.2C293.333 333.067 303.2 323.733 309.6 312C321.951 288.681 319.882 260.52 304.267 239.467C296.533 229.067 286.133 221.333 274.4 216.8L289.867 196.267C306.733 204 320.704 217.195 329.617 233.825C338.53 250.455 341.908 269.615 339.308 288.365C336.708 307.116 328.266 324.393 315.025 337.356C301.784 350.319 284.528 358.241 266.088 359.73C247.649 361.218 229.158 356.176 213.756 345.462C198.353 334.747 186.953 318.999 181.333 300.8C180.8 299.2 180.267 297.867 180 296.533L180 296L185.067 279.467L184.533 278.4C185.6 270.4 187.733 262.667 190.667 255.467L203.2 266.667C201.6 277.867 203.467 289.867 208.267 300.267C221.333 328.267 252.267 343.733 281.6 336.267C297.067 332.267 310.667 322.133 318.4 308C326.133 293.867 328 277.867 324 262.4C319.467 245.6 308.267 231.733 292.533 223.733C284 219.733 274.4 218.133 265.067 218.933C254.761 219.773 245.051 224.194 237.6 231.467L280.533 267.667L280.533 267.733L280 268.267C280 278.133 271.733 286.133 262.4 286.133C253.067 286.133 244.533 278.133 244.533 268.267C244.533 258.4 252.8 250.4 262.133 250.4C264.533 250.4 267.2 250.933 269.333 252.267L228.8 218.4L228.8 218.267C218.4 226 210.4 236.267 206.4 248C201.956 261.128 201.629 275.313 205.467 288.667C209.305 302.02 217.136 313.797 228.049 322.349C238.962 330.9 252.415 335.762 266.434 336.168C280.453 336.573 294.185 332.499 305.631 324.658C317.078 316.817 325.68 305.595 330.375 292.572C335.069 279.548 335.627 265.415 332.058 252.041C328.489 238.667 321.017 226.713 310.667 218L330.667 192C347.204 209.481 356.97 232.351 358.4 256C359.831 279.649 352.827 303.108 338.667 322C324.548 340.83 304.039 354.067 280.841 359.149C257.644 364.23 233.35 360.831 212.525 349.518C191.7 338.206 175.814 319.869 167.752 297.796C159.689 275.723 159.968 251.51 168.533 229.6C168.533 229.333 168.8 229.067 169.067 228.8L163.733 224H135.467L135.467 204.8L170.667 204.8L174.4 207.733C159.467 227.467 152 252 152 276.8C153.333 299.067 162.4 320.533 177.867 336.8C193.333 353.067 214.267 364 236.533 368C240.533 368.8 244.533 369.333 248.533 369.6C250.4 369.867 252.267 369.867 254.133 369.867L258.667 369.867C274.267 370.4 289.867 367.467 304 360.8C332.8 347.47 354.133 322.398 362.667 292.267C371.2 262.136 366.133 229.333 348.267 203.733C343.065 194.913 336.695 186.925 329.333 180C317.333 169.333 303.2 161.867 288 158.133C272.8 154.4 256 154.667 241.067 158.933C226.133 163.2 212.267 171.467 201.6 183.467L192 175.467L192 170.667L192 176.533L170.667 176.533L170.667 149.333L192 149.333L192 176.533L176 190.667C195.2 174.667 220 165.333 245.867 166.133C271.733 166.933 296 177.333 314.4 195.733C313.045 194.38 311.65 193.068 310.216 191.8C307.289 189.208 304.219 186.797 301.022 184.577C299.2 183.333 297.378 182.193 295.511 181.152C293.111 179.708 290.644 178.372 288.116 177.145C284.533 175.427 280.841 173.905 277.057 172.585C274.311 171.641 271.511 170.775 268.667 170.192C267.378 169.923 266.08 169.682 264.773 169.47C262.4 169.067 260 168.8 257.6 168.533C254.667 168.267 251.733 168 249.067 168C226.933 168 205.333 176 188.267 191.467C187.033 192.613 185.833 193.8 184.667 195.027L184.533 195.2L184.533 176.533L135.467 176.533L135.467 156.267L192 156.267L192 170.667L184.533 170.667L184.533 156.267L222.933 156.267L222.933 176.533L192 176.533L192 170.667L256 128Z" fill="#F8F8F8" fill-opacity="0.8"/>
</svg>